<svg width="19" height="19" viewBox="0 0 19 19" fill="none" xmlns="http://www.w3.org/2000/svg">
<path d="M18.6893 12.693C18.2426 14.738 17.14 16.2968 15.3813 17.3694C13.6226 18.442 11.7523 18.9854 9.77025 18.9997C7.78825 19.014 5.95977 18.4491 4.28484 17.3051C2.6099 16.161 1.3886 14.595 0.620917 12.6072C-0.146762 10.6194 -0.202593 8.59576 0.453423 6.53642C1.10944 4.47708 2.30283 2.83246 4.0336 1.60258C5.76437 0.372693 7.64169 -0.149294 9.66557 0.0366192C11.6895 0.222532 13.5528 0.866077 15.2557 1.96725C16.9585 3.06843 18.0682 4.62009 18.5846 6.62223C19.101 8.62436 19.1359 10.648 18.6893 12.693Z" fill="#5A7CA7"/>
</svg>
