<svg width="427" height="81" viewBox="0 0 427 81" fill="none" xmlns="http://www.w3.org/2000/svg">
<path d="M392.044 5.76939L399.048 1.97859L402.487 9.16321L410.321 7.7227L411.371 15.617L419.266 16.6679L417.825 24.5012L425.01 27.9403L421.219 34.9449L426.988 40.4352L421.219 45.9256L425.01 52.9301L417.825 56.3692L419.266 64.2025L411.371 65.2534L410.321 73.1477L402.487 71.7072L399.048 78.8918L392.044 75.101L386.553 80.8704L381.248 75.2958L381.133 75.2337L375.771 80.8704L375.583 80.6746L375.398 80.8704L370.185 75.3938L364.975 80.8704L364.794 80.6809L364.615 80.8704L359.403 75.3927L354.192 80.8704L354.085 80.7567L353.978 80.8704L348.673 75.2958L348.507 75.2053L347.897 75.5359L345.087 78.4885L344.896 78.8918L344.769 78.8234L342.822 80.8704L337.611 75.3938L332.4 80.8704L330.452 78.8234L330.327 78.8918L330.135 78.4906L327.095 75.2958L326.822 75.1474L326.546 75.2969L323.509 78.4885L323.317 78.8918L323.191 78.8234L321.244 80.8704L316.033 75.3938L310.821 80.8704L308.873 78.8234L308.749 78.8918L308.556 78.4906L305.516 75.2958L305.244 75.1474L304.968 75.2969L301.931 78.4885L301.739 78.8918L301.621 78.8276L301.592 78.8918L301.564 78.876L299.666 80.8704L294.454 75.3927L289.243 80.8704L289.17 80.7925L289.097 80.8704L287.198 78.876L287.171 78.8918L287.128 78.8013L283.79 75.2948L283.592 75.1874L283.089 75.4601L280.442 78.2421L280.132 78.8918L280.038 78.8402L280.014 78.8918L279.889 78.8234L277.942 80.8704L272.788 75.4559L267.637 80.8704L267.577 80.8083L267.519 80.8704L265.571 78.8234L265.446 78.8918L265.253 78.4896L262.182 75.2632L256.848 80.8704L256.664 80.6777L256.481 80.8704L251.269 75.3927L246.059 80.8704L245.875 80.6777L245.692 80.8704L240.48 75.3927L235.27 80.8704L235.085 80.6777L234.903 80.8704L229.705 75.4075L224.508 80.8704L224.493 80.8557L224.481 80.8704L222.533 78.8234L222.407 78.8918L222.214 78.4885L219.146 75.2643L218.93 75.1474L218.657 75.2958L215.617 78.4906L215.425 78.8918L215.3 78.8234L213.353 80.8704L208.14 75.3927L202.93 80.8704L202.58 80.5029L202.232 80.8704L196.977 75.3506L195.637 76.0761L193.339 78.4906L193.149 78.8918L193.023 78.8234L191.076 80.8704L185.864 75.3938L180.653 80.8704L178.705 78.8234L178.58 78.8918L178.388 78.4906L175.348 75.2958L175.075 75.1474L174.799 75.2969L171.761 78.4906L171.57 78.8918L171.444 78.8234L169.497 80.8704L164.286 75.3938L159.075 80.8704L157.127 78.8234L157.002 78.8918L156.81 78.4906L153.77 75.2958L153.497 75.1474L153.221 75.2969L150.183 78.4906L149.991 78.8918L149.866 78.8234L147.919 80.8704L142.708 75.3938L137.497 80.8704L135.549 78.8234L135.424 78.8918L135.232 78.4906L132.192 75.2958L131.919 75.1474L131.643 75.2969L129.248 77.8146L128.734 78.8918L128.479 78.7539L128.413 78.8918L128.288 78.8234L126.341 80.8704L121.288 75.5612L116.238 80.8704L116.077 80.7019L115.918 80.8704L113.969 78.8234L113.845 78.8918L113.652 78.4896L110.534 75.2148L110.386 75.2958L107.346 78.4906L107.154 78.8918L107.029 78.8234L105.082 80.8704L99.8708 75.3938L94.6595 80.8704L92.7114 78.8234L92.5872 78.8918L92.3945 78.4906L89.3544 75.2958L89.0817 75.1474L88.8058 75.2969L85.7679 78.4906L85.5763 78.8918L85.451 78.8234L83.504 80.8704L78.2927 75.3938L73.0814 80.8704L71.1333 78.8234L71.0091 78.8918L70.8164 78.4906L67.7764 75.2958L67.5036 75.1474L67.2278 75.2969L64.1898 78.4906L63.9982 78.8918L63.8729 78.8234L61.9259 80.8704L56.7146 75.3938L51.5033 80.8704L49.5552 78.8234L49.4299 78.8918L49.2372 78.4896L46.1035 75.1969L45.9687 75.1242L45.8329 75.1969L40.4352 80.8704L34.9449 75.101L27.9403 78.8918L24.5012 71.7072L16.6679 73.1477L15.617 65.2534L7.7227 64.2025L9.16321 56.3692L1.97859 52.9301L5.76939 45.9256L0 40.4352L5.76939 34.9449L1.97859 27.9403L9.16321 24.5012L7.7227 16.6679L15.617 15.617L16.6679 7.7227L24.5012 9.16321L27.9403 1.97859L34.9449 5.76939L40.4352 0L45.8329 5.67251L45.9687 5.74517L46.1035 5.67251L49.2372 2.37873L49.4299 1.97859L49.5552 2.04598L51.5033 0L56.7146 5.4756L61.9259 0L63.8729 2.04598L63.9982 1.97859L64.1898 2.37873L67.2299 5.57353L67.5026 5.72095L67.7764 5.57353L70.8174 2.37767L71.0091 1.97859L71.1333 2.04598L73.0814 0L78.2927 5.4756L83.504 0L85.451 2.04598L85.5763 1.97859L85.7679 2.37873L88.8079 5.57353L89.0817 5.722L89.3544 5.57353L92.3955 2.37767L92.5872 1.97859L92.7114 2.04598L94.6595 0L99.8708 5.4756L105.082 0L107.029 2.04598L107.154 1.97859L107.345 2.37767L110.386 5.57353L110.536 5.65461L113.652 2.37873L113.845 1.97859L113.969 2.04598L115.918 0L116.077 0.167427L116.238 0L121.289 5.30817L126.341 0L128.288 2.04598L128.413 1.97859L128.479 2.11548L128.734 1.97859L129.248 3.05475L131.645 5.57353L131.918 5.72095L132.192 5.57353L135.233 2.37767L135.424 1.97859L135.549 2.04598L137.497 0L142.708 5.4756L147.919 0L149.866 2.04598L149.991 1.97859L150.182 2.37767L153.223 5.57353L153.497 5.722L153.77 5.57353L156.811 2.37767L157.002 1.97859L157.127 2.04598L159.075 0L164.286 5.4756L169.497 0L171.444 2.04598L171.57 1.97859L171.76 2.37767L174.801 5.57353L175.075 5.722L175.348 5.57353L178.389 2.37767L178.58 1.97859L178.705 2.04598L180.653 0L185.864 5.4756L191.076 0L193.023 2.04598L193.149 1.97859L193.339 2.37767L195.639 4.79536L196.977 5.51877L202.232 0L202.58 0.366444L202.93 0L208.14 5.4756L213.353 0L215.3 2.04598L215.425 1.97859L215.616 2.37767L218.657 5.57353L218.93 5.722L219.148 5.60301L222.215 2.38083L222.407 1.97859L222.533 2.04598L224.481 0L224.493 0.013689L224.508 0L229.706 5.46086L234.903 0L235.085 0.191646L235.27 0L240.48 5.4756L245.692 0L245.875 0.191646L246.059 0L251.269 5.4756L256.481 0L256.664 0.191646L256.848 0L262.182 5.60617L265.253 2.37978L265.446 1.97859L265.571 2.04598L267.519 0L267.577 0.061074L267.637 0L272.788 5.41347L277.942 0L279.889 2.04598L280.014 1.97859L280.038 2.02913L280.132 1.97859L280.442 2.62724L283.091 5.41032L283.591 5.68199L283.79 5.57458L287.128 2.06704L287.171 1.97859L287.198 1.99333L289.097 0L289.17 0.076869L289.243 0L294.454 5.4756L299.666 0L301.564 1.99333L301.592 1.97859L301.621 2.04177L301.739 1.97859L301.931 2.37978L304.97 5.57353L305.244 5.722L305.516 5.57353L308.558 2.37767L308.749 1.97859L308.873 2.04598L310.821 0L316.033 5.4756L321.244 0L323.191 2.04598L323.317 1.97859L323.509 2.37978L326.548 5.57353L326.822 5.722L327.095 5.57353L330.136 2.37767L330.327 1.97859L330.452 2.04598L332.4 0L337.611 5.4756L342.822 0L344.769 2.04598L344.896 1.97859L345.087 2.37978L347.899 5.3345L348.506 5.66304L348.673 5.57353L353.978 0L354.085 0.112671L354.192 0L359.403 5.4756L364.615 0L364.794 0.188487L364.975 0L370.186 5.4756L375.398 0L375.583 0.194805L375.771 0L381.133 5.63566L381.25 5.57142L386.553 0L392.044 5.76939Z" fill="#EECD45"/>
</svg>
