<svg width="34" height="35" viewBox="0 0 34 35" fill="none" xmlns="http://www.w3.org/2000/svg">
<path d="M17.5376 4.66821C14.6816 4.5316 12.1269 5.32872 9.854 7.06567C7.55721 8.821 5.87427 11.0159 4.79834 13.6555C3.7362 16.2615 3.69502 18.8966 4.6792 21.5862C5.66871 24.2903 7.34897 26.4078 9.72803 27.9534C12.1262 29.5113 14.7989 30.3998 17.7544 30.6174C20.6734 30.8323 23.3224 30.0831 25.7202 28.3625C28.1216 26.6394 29.6633 24.4206 30.3657 21.6946C31.0798 18.923 31.1619 16.0912 30.6099 13.1946C30.0739 10.3822 28.5179 8.3141 25.9067 6.96021C23.2249 5.56969 20.4366 4.80695 17.5376 4.66821Z" stroke="#57514E"/>
<path d="M30.0331 14.3407C29.5145 11.4167 28.1193 9.01232 25.8372 7.10992C23.5322 5.1885 20.9236 3.9896 18.004 3.50728C15.12 3.03085 12.4406 3.59539 9.94282 5.21091C7.43219 6.83483 5.67395 9.02362 4.65595 11.7883C3.63008 14.5745 3.34529 17.4849 3.80456 20.5269C4.25837 23.5324 5.62643 26.0428 7.92035 28.0753C10.2176 30.1108 12.8199 31.1614 15.7426 31.2458C18.7124 31.3315 21.5979 30.764 24.4029 29.5393C27.1293 28.349 28.8665 26.2962 29.6373 23.3393C30.4283 20.305 30.5592 17.3072 30.0331 14.3407Z" stroke="#57514E"/>
</svg>
