<svg width="30" height="30" viewBox="0 0 30 30" fill="none" xmlns="http://www.w3.org/2000/svg">
<path d="M16.4497 25.9776C14.1097 26.6092 11.9195 26.3073 9.87924 25.0719C7.83893 23.8364 6.28289 22.204 5.21112 20.1746C4.13935 18.1452 3.74474 15.9647 4.02727 13.6331C4.3098 11.3015 5.26785 9.21116 6.90143 7.36199C8.535 5.51283 10.585 4.37619 13.0513 3.9521C15.5177 3.52801 17.8445 3.87739 20.0315 5.00025C22.2186 6.12311 23.7564 7.77414 24.6447 9.95334C25.533 12.1325 25.8654 14.3909 25.6419 16.7283C25.4183 19.0657 24.4154 21.0337 22.6331 22.6322C20.8509 24.2308 18.7897 25.3459 16.4497 25.9776Z" fill="#F5E7CB"/>
<path d="M13.1178 18.4449C12.9405 18.4449 12.8518 18.3555 12.8518 18.1766V16.8347C12.8518 16.0297 13.0291 15.3677 13.3837 14.8489C13.7561 14.33 14.2968 13.7754 15.0061 13.185C15.6621 12.6304 16.1497 12.1295 16.4688 11.6822C16.8057 11.2349 16.9742 10.6624 16.9742 9.96469C16.9742 9.15961 16.7525 8.52448 16.3093 8.05932C15.8837 7.57627 15.3075 7.33475 14.5805 7.33475C13.8359 7.33475 13.233 7.58522 12.772 8.08616C12.311 8.56921 12.0805 9.21328 12.0805 10.0184V10.7161C12.0805 10.895 11.9919 10.9845 11.8146 10.9845L9.7933 10.8771C9.616 10.8771 9.52734 10.7877 9.52734 10.6088V10.0184C9.52734 8.51554 9.9972 7.30791 10.9369 6.39548C11.8766 5.46516 13.1089 5 14.6337 5C16.1231 5 17.311 5.44727 18.1976 6.34181C19.0841 7.21846 19.5273 8.39925 19.5273 9.88418C19.5273 10.6714 19.4032 11.3512 19.155 11.9237C18.9245 12.4962 18.6408 12.9614 18.3039 13.3192C17.9848 13.677 17.5593 14.0796 17.0273 14.5268C16.4777 14.992 16.0699 15.3945 15.8039 15.7345C15.538 16.0744 15.405 16.4859 15.405 16.9689V18.1766C15.405 18.3555 15.3164 18.4449 15.139 18.4449H13.1178ZM14.1018 24C13.6054 24 13.1976 23.839 12.8784 23.5169C12.5593 23.1949 12.3997 22.7834 12.3997 22.2825C12.3997 21.7815 12.5593 21.3701 12.8784 21.048C13.1976 20.726 13.6054 20.565 14.1018 20.565C14.5983 20.565 15.0061 20.726 15.3252 21.048C15.6444 21.3701 15.8039 21.7815 15.8039 22.2825C15.8039 22.7834 15.6444 23.1949 15.3252 23.5169C15.0061 23.839 14.5983 24 14.1018 24Z" fill="#57514E"/>
</svg>
