<svg width="19" height="20" viewBox="0 0 19 20" fill="none" xmlns="http://www.w3.org/2000/svg">
<path d="M7.90484 0.297151C9.9202 -0.26857 11.8142 -0.0267901 13.5869 1.02249C15.3596 2.07177 16.7175 3.46806 17.6606 5.21136C18.6037 6.95465 18.9634 8.83429 18.7395 10.8503C18.5157 12.8663 17.7064 14.6798 16.3117 16.2909C14.9169 17.9019 13.1564 18.9012 11.0301 19.2888C8.90385 19.6764 6.89148 19.3948 4.99301 18.444C3.09454 17.4932 1.75231 16.0807 0.966302 14.2064C0.180299 12.3322 -0.126282 10.3848 0.0465584 8.36429C0.219399 6.34379 1.06848 4.63557 2.59381 3.23964C4.11915 1.8437 5.88949 0.862872 7.90484 0.297151Z" fill="#E96C55"/>
</svg>
